<mxfile host="app.diagrams.net" modified="2023-03-29T11:08:01.043Z" agent="Mozilla/5.0 (Macintosh; Intel Mac OS X 10_15_7) AppleWebKit/605.1.15 (KHTML, like Gecko) Version/16.3 Safari/605.1.15" version="21.1.1" etag="TCW8As_MiV359oZ-ewo1" type="github">
  <diagram name="第 1 页" id="r2IaRuM7b1JPKaazcJQu">
    <mxGraphModel>
      <root>
        <mxCell id="0" />
        <mxCell id="1" parent="0" />
      </root>
    </mxGraphModel>
  </diagram>
</mxfile>
